<svg xmlns="http://www.w3.org/2000/svg" width="32" height="33" viewBox="0 0 32 33" fill="none">
  <path d="M16.699 24.8357L13.6042 25.3879C12.9386 25.5067 12.6058 25.5661 12.2908 25.5221C12.0122 25.4832 11.7448 25.3859 11.5063 25.2365C11.2368 25.0678 11.02 24.8084 10.5865 24.2896L8.57068 21.8772L6.54499 19.4731C6.10935 18.9561 5.89153 18.6976 5.77215 18.4028C5.66653 18.142 5.61713 17.8618 5.62718 17.5806C5.63854 17.2628 5.75481 16.9454 5.98735 16.3106L7.06862 13.3586L8.13778 10.4023C8.36771 9.7665 8.48268 9.4486 8.67827 9.19783C8.85133 8.97595 9.06925 8.79309 9.31781 8.66119C9.59874 8.51212 9.93177 8.4541 10.5978 8.33806L13.6949 7.79851L16.7897 7.24626C17.4553 7.12749 17.7881 7.06811 18.1031 7.11211C18.3818 7.15105 18.6491 7.24834 18.8876 7.39765C19.1572 7.5664 19.3739 7.8258 19.8074 8.34461L21.8232 10.757L23.8489 13.1611C24.2846 13.6781 24.5024 13.9366 24.6218 14.2314C24.7274 14.4922 24.7768 14.7724 24.7667 15.0536C24.7554 15.3714 24.6391 15.6888 24.4066 16.3236L24.1852 16.9281" stroke="#0F172A" stroke-width="2" stroke-linecap="round" stroke-linejoin="round"/>
  <path d="M22 26V20M19 23H25" stroke="#0F172A" stroke-width="2" stroke-linecap="round" stroke-linejoin="round"/>
</svg>