<svg xmlns="http://www.w3.org/2000/svg" width="24" height="24" viewBox="0 0 24 24" fill="none">
  <path d="M15.5 15.5L8.5 8.49998M15 4V2M9 20V22M20 9H22M4 15H2M19.0858 4.91421L20.5 3.5M4.91418 19.0857L3.49997 20.4999M12 17.6568L14.1213 19.7781C15.6834 21.3402 18.216 21.3402 19.7781 19.7781C21.3402 18.216 21.3402 15.6833 19.7781 14.1212L17.6568 11.9999M6.34311 11.9999L4.22179 9.87859C2.65969 8.31649 2.65969 5.78383 4.22179 4.22174C5.78389 2.65964 8.31655 2.65964 9.87865 4.22174L12 6.34306" stroke="#0F172A" stroke-width="2" stroke-linecap="round" stroke-linejoin="round"/>
</svg>