<svg width="64" height="21" viewBox="0 0 64 21" fill="none" xmlns="http://www.w3.org/2000/svg">
<path d="M0.464 7.2H4.528V19.936C4.35733 20 4.09067 20.0533 3.728 20.096C3.38667 20.16 3.024 20.192 2.64 20.192C1.872 20.192 1.31733 20.0533 0.976 19.776C0.634667 19.4773 0.464 18.9867 0.464 18.304V7.2ZM4.528 11.84H0.464V0.575998C0.656 0.533332 0.922667 0.479999 1.264 0.415998C1.62667 0.351999 1.98933 0.32 2.352 0.32C3.12 0.32 3.67467 0.458666 4.016 0.735998C4.35733 0.991999 4.528 1.48267 4.528 2.208V11.84ZM12.688 7.2H16.72V19.936C16.5493 20 16.2827 20.0533 15.92 20.096C15.5787 20.16 15.2267 20.192 14.864 20.192C14.0747 20.192 13.5093 20.0533 13.168 19.776C12.848 19.4773 12.688 18.9867 12.688 18.304V7.2ZM16.72 11.84H12.688V0.575998C12.8587 0.533332 13.1147 0.479999 13.456 0.415998C13.8187 0.351999 14.1813 0.32 14.544 0.32C15.312 0.32 15.8667 0.458666 16.208 0.735998C16.5493 1.01333 16.72 1.51467 16.72 2.24V11.84ZM14.928 11.84H2.448V8.608H14.928V11.84ZM21.7148 7.168H25.7468V19.936C25.5761 20 25.3201 20.0533 24.9788 20.096C24.6374 20.16 24.2748 20.192 23.8908 20.192C23.1228 20.192 22.5681 20.0533 22.2268 19.776C21.8854 19.4773 21.7148 18.9867 21.7148 18.304V7.168ZM25.7468 11.84H21.7148V0.575998C21.8854 0.533332 22.1521 0.479999 22.5148 0.415998C22.8774 0.351999 23.2401 0.32 23.6028 0.32C24.3494 0.32 24.8934 0.458666 25.2348 0.735998C25.5761 0.991999 25.7468 1.48267 25.7468 2.208V11.84ZM40.6333 19.552C40.4413 19.7227 40.1106 19.872 39.6413 20C39.1933 20.1493 38.6919 20.224 38.1373 20.224C37.4973 20.224 36.9426 20.1387 36.4733 19.968C36.0039 19.776 35.6839 19.4987 35.5133 19.136C35.1933 18.5173 34.8093 17.6853 34.3613 16.64C33.9346 15.5947 33.4653 14.4213 32.9533 13.12C32.4626 11.7973 31.9719 10.4427 31.4813 9.056C30.9906 7.66933 30.5319 6.31467 30.1053 4.992C29.6999 3.648 29.3479 2.44267 29.0493 1.376C29.2626 1.14133 29.5719 0.927998 29.9773 0.735998C30.3826 0.522665 30.8199 0.415998 31.2893 0.415998C31.8866 0.415998 32.3559 0.554665 32.6973 0.831999C33.0386 1.088 33.2946 1.52533 33.4653 2.144C34.2333 4.59733 34.9906 6.96533 35.7373 9.248C36.4839 11.5307 37.2733 13.856 38.1053 16.224H38.2653C38.7773 14.752 39.2999 13.1627 39.8333 11.456C40.3879 9.74933 40.9213 7.98933 41.4333 6.176C41.9666 4.36267 42.4466 2.592 42.8733 0.863998C43.1293 0.735999 43.4066 0.629332 43.7053 0.543999C44.0253 0.458665 44.3666 0.415998 44.7292 0.415998C45.3053 0.415998 45.7853 0.554665 46.1693 0.831999C46.5746 1.10933 46.7773 1.536 46.7773 2.112C46.7773 2.496 46.6599 3.136 46.4253 4.032C46.2119 4.90667 45.9133 5.93067 45.5293 7.104C45.1453 8.27733 44.7293 9.49333 44.2812 10.752C43.8333 12.0107 43.3746 13.2373 42.9053 14.432C42.4359 15.6053 41.9986 16.6507 41.5933 17.568C41.2093 18.464 40.8893 19.1253 40.6333 19.552ZM50.1828 7.136H54.1508V19.776C54.0014 19.8187 53.7561 19.872 53.4148 19.936C53.0734 20 52.7214 20.032 52.3588 20.032C51.6974 20.032 51.1641 19.84 50.7588 19.456C50.3748 19.0507 50.1828 18.528 50.1828 17.888V7.136ZM54.1508 13.408L50.1828 13.376V2.72C50.1828 2.05867 50.3748 1.536 50.7588 1.152C51.1641 0.767998 51.6974 0.575998 52.3588 0.575998C52.7214 0.575998 53.0734 0.607999 53.4148 0.671999C53.7561 0.735999 54.0014 0.789333 54.1508 0.831999V13.408ZM52.3588 11.68V8.48H61.9908C62.0974 8.62933 62.1934 8.84267 62.2788 9.12C62.3854 9.39733 62.4388 9.696 62.4388 10.016C62.4388 10.5707 62.3108 10.9867 62.0548 11.264C61.7988 11.5413 61.4468 11.68 60.9988 11.68H52.3588ZM52.3588 20.032V16.8H63.1108C63.1961 16.9493 63.2814 17.1627 63.3668 17.44C63.4734 17.7173 63.5268 18.0267 63.5268 18.368C63.5268 18.9227 63.3988 19.3387 63.1428 19.616C62.8868 19.8933 62.5348 20.032 62.0868 20.032H52.3588ZM52.3588 3.84V0.575998H62.9508C63.0574 0.725332 63.1534 0.938666 63.2388 1.216C63.3241 1.49333 63.3668 1.792 63.3668 2.112C63.3668 2.66667 63.2388 3.09333 62.9828 3.392C62.7481 3.69067 62.3961 3.84 61.9268 3.84H52.3588Z" fill="#0F172A"/>
</svg>
