<svg xmlns="http://www.w3.org/2000/svg" width="48" height="48" viewBox="0 0 48 48" fill="none">
  <g clip-path="url(#clip0_18_2717)">
    <path d="M39.455 4.35571C40.3337 3.47703 40.3337 2.05241 39.455 1.17373C38.5763 0.295049 37.1517 0.295049 36.273 1.17373L39.455 4.35571ZM30.9697 12.841L39.455 4.35571L36.273 1.17373L27.7877 9.65901L30.9697 12.841Z" fill="#F9CC45"/>
    <path d="M8.28774 4.35571C7.40906 3.47703 7.40906 2.05241 8.28774 1.17373C9.16642 0.295049 10.591 0.295049 11.4697 1.17373L8.28774 4.35571ZM16.773 12.841L8.28774 4.35571L11.4697 1.17373L19.955 9.65901L16.773 12.841Z" fill="#F9CC45"/>
    <path d="M26.7084 41.0937L28.5 43.5L26.7084 41.0937C25.7866 41.78 24.8147 42.8284 24 43.8011C23.1853 42.8284 22.2134 41.78 21.2916 41.0937C18.3023 38.8681 15.1781 36.863 12.1632 34.9281C11.9943 34.8196 11.8257 34.7115 11.6575 34.6035C10.0023 33.5406 9 31.692 9 29.6833V17.5667C9 15.5605 10.0026 13.6871 11.6718 12.5744L20.6718 6.57435C22.6872 5.23076 25.3128 5.23076 27.3282 6.57435L36.3282 12.5744C37.9974 13.6871 39 15.5605 39 17.5667V29.6833C39 31.6921 37.9977 33.5406 36.3425 34.6035C36.1743 34.7115 36.0056 34.8197 35.8367 34.9281C32.8218 36.863 29.6977 38.8681 26.7084 41.0937Z" fill="#F9CC45" stroke="#0F172A" stroke-width="6" stroke-linejoin="round"/>
    <path d="M26.9122 20.3817L29.6146 22.1833H18.3854L21.0878 20.3817C22.8513 19.2061 25.1487 19.2061 26.9122 20.3817Z" stroke="#0F172A" stroke-width="7.5" stroke-linejoin="round"/>
    <mask id="path-5-inside-1_18_2717" fill="white">
      <path d="M19.0077 34.5115C22.0308 32.4962 25.9692 32.4962 28.9923 34.5115L32.2442 36.6795L24.375 40.875L15.7558 36.6795L19.0077 34.5115Z"/>
    </mask>
    <path d="M28.9923 34.5115L24.832 40.7519V40.7519L28.9923 34.5115ZM19.0077 34.5115L14.8474 28.2712H14.8474L19.0077 34.5115ZM15.7558 36.6795L11.5955 30.4391C9.35914 31.93 8.09156 34.5037 8.27285 37.1854C8.45414 39.867 10.0566 42.2467 12.4733 43.423L15.7558 36.6795ZM32.2442 36.6795L35.7727 43.2976C38.101 42.0563 39.6057 39.6829 39.7352 37.0475C39.8647 34.4122 38.5998 31.9027 36.4045 30.4391L32.2442 36.6795ZM24.375 40.875L21.0925 47.6185C23.252 48.6697 25.7842 48.623 27.9035 47.4931L24.375 40.875ZM33.1525 28.2712C27.6102 24.5763 20.3898 24.5763 14.8474 28.2712L23.1679 40.7519C23.6718 40.416 24.3282 40.416 24.832 40.7519L33.1525 28.2712ZM19.916 42.9199L23.1679 40.7519L14.8474 28.2712L11.5955 30.4391L19.916 42.9199ZM24.832 40.7519L28.084 42.9199L36.4045 30.4391L33.1525 28.2712L24.832 40.7519ZM12.4733 43.423L21.0925 47.6185L27.6575 34.1315L19.0383 29.936L12.4733 43.423ZM27.9035 47.4931L35.7727 43.2976L28.7157 30.0614L20.8465 34.2569L27.9035 47.4931Z" fill="#0F172A" mask="url(#path-5-inside-1_18_2717)"/>
    <path d="M11.625 11.8146C11.8571 11.6806 12.1429 11.6806 12.375 11.8146L19.7673 16.0825C19.9994 16.2165 20.1423 16.4641 20.1423 16.7321V25.2679C20.1423 25.5359 19.9994 25.7835 19.7673 25.9175L12.375 30.1854C12.1429 30.3194 11.8571 30.3194 11.625 30.1854L4.2327 25.9175C4.00064 25.7835 3.8577 25.5359 3.8577 25.268V16.7321C3.8577 16.4641 4.00065 16.2165 4.2327 16.0825L11.625 11.8146Z" fill="#F5F4F0" stroke="#0F172A" stroke-width="4.5" stroke-linejoin="round"/>
    <path d="M35.625 11.8146C35.8571 11.6806 36.1429 11.6806 36.375 11.8146L43.7673 16.0825C43.9994 16.2165 44.1423 16.4641 44.1423 16.7321V25.2679C44.1423 25.5359 43.9994 25.7835 43.7673 25.9175L36.375 30.1854C36.1429 30.3194 35.8571 30.3194 35.625 30.1854L28.2327 25.9175C28.0006 25.7835 27.8577 25.5359 27.8577 25.268V16.7321C27.8577 16.4641 28.0006 16.2165 28.2327 16.0825L35.625 11.8146Z" fill="#F5F4F0" stroke="#0F172A" stroke-width="4.5" stroke-linejoin="round"/>
  </g>
  <defs>
    <clipPath id="clip0_18_2717">
      <rect width="48" height="48" fill="white"/>
    </clipPath>
  </defs>
</svg>